<svg version="1" xmlns="http://www.w3.org/2000/svg" width="176" height="176" viewBox="0 0 132.000000 132.000000"><path d="M64.3 3.6C37 9.5 11.5 32 4.5 56.2c-.9 3.2-1.5 7.3-1.3 9.2l.3 3.4 9-5.8 8.9-5.9 2.1-8.3C25.8 39.5 29.1 33.7 36 27c8.2-8 22.4-13.9 33.5-14 4.1 0 11.5 1.7 17.1 4.1 2.9 1.2 3.8.9 12.3-3.1 5-2.4 9.1-4.7 9.1-5 0-1.1-8.9-4.7-14.8-5.9-7-1.5-21.2-1.2-28.9.5zM91.9 21.8c-21.2 10.8-47.8 26-70.3 40.3-20.3 13-19 11.7-18.2 17.3C3.8 81.9 4.5 84 5 84s7.3-4.2 15.2-9.3c7.9-5.2 18.4-11.9 23.4-15l9.1-5.5 16.8 38.4c9.2 21.1 17.2 38.4 17.8 38.4 2.1 0 30.7-21.2 30-22.3-.4-.7-10.5-15.9-22.4-33.9L73.1 42.2l23.2-11.8c12.8-6.4 23.4-11.8 23.5-12 .6-.4-6.2-6.3-7.4-6.4-.6 0-9.8 4.4-20.5 9.8z"/><path d="M112.1 28.9l-9.4 4.8-.1 9.9c-.1 8.7-.4 10.6-2.9 15.7-1.6 3.1-2.7 6.1-2.5 6.5.5 1.2 16 15.2 16.9 15.2.8 0 6.7-8.8 9.2-13.5 3.3-6.5 5.7-16.7 5.6-23.9 0-8-3.4-18.9-5.9-19.3-.8-.1-5.7 1.9-10.9 4.6zM18.3 83.1C12.6 86.9 8 90.5 8 91s2.6 3.6 5.8 6.8c10.1 10.3 23.6 14.8 41.5 13.9 5.4-.3 10.1-.8 10.4-1.1.6-.6-.4-4.8-4.3-18.3l-1.5-5.1-6.2-.7c-8-.9-16-3.9-20.2-7.6-1.8-1.6-3.7-2.9-4.1-2.8-.5 0-5.5 3.2-11.1 7z"/></svg>